<svg width="31.000000" height="35.000000" viewBox="0 0 31 35" fill="none" xmlns="http://www.w3.org/2000/svg" xmlns:xlink="http://www.w3.org/1999/xlink">
	<desc>
			Created with Pixso.
	</desc>
	<defs/>
	<path id="Vector" d="M15.62 -0.26C17.44 -0.26 19.19 0.44 20.48 1.67C21.69 2.84 22.4 4.39 22.49 6.02L22.5 6.35L22.5 9.74L27.26 9.74L29.95 29.65C30.12 30.92 29.77 32.2 28.97 33.18C28.21 34.1 27.13 34.66 25.97 34.73L25.7 34.74L4.29 34.74C3.03 34.74 1.84 34.17 1.02 33.18C0.28 32.27 -0.08 31.1 0.01 29.93L0.04 29.65L2.73 9.74L8.75 9.74L8.75 6.35C8.75 2.7 11.82 -0.26 15.62 -0.26ZM25.07 12.24L22.5 12.24L22.5 17.24L19.9 17.24L19.9 12.24L11.34 12.24L11.34 17.24L8.75 17.24L8.75 12.24L4.92 12.24L2.51 29.99C2.45 30.44 2.54 30.9 2.75 31.28L2.84 31.44L2.96 31.59C3.26 31.95 3.67 32.18 4.1 32.23L4.29 32.24L25.7 32.24C26.2 32.24 26.69 32.01 27.03 31.59C27.35 31.2 27.52 30.7 27.49 30.18L27.48 29.99L25.07 12.24ZM15.62 2.24C13.34 2.24 11.47 3.96 11.34 6.12L11.34 6.35L11.34 9.74L19.9 9.74L19.9 6.35C19.9 5.26 19.45 4.22 18.65 3.45C17.85 2.67 16.76 2.24 15.62 2.24Z" fill="#000000" fill-opacity="1.000000" fill-rule="nonzero"/>
	<path id="Vector" d="M20.48 1.67C21.69 2.84 22.4 4.39 22.49 6.02L22.5 6.35L22.5 9.74L27.26 9.74L29.95 29.65C30.12 30.92 29.77 32.2 28.97 33.18C28.21 34.1 27.13 34.66 25.97 34.73L25.7 34.74L4.29 34.74C3.03 34.74 1.84 34.17 1.02 33.18C0.28 32.27 -0.08 31.1 0.01 29.93L0.04 29.65L2.73 9.74L8.75 9.74L8.75 6.35C8.75 2.7 11.82 -0.26 15.62 -0.26C17.44 -0.26 19.19 0.44 20.48 1.67ZM22.5 12.24L22.5 17.24L19.9 17.24L19.9 12.24L11.34 12.24L11.34 17.24L8.75 17.24L8.75 12.24L4.92 12.24L2.51 29.99C2.45 30.44 2.54 30.9 2.75 31.28L2.84 31.44L2.96 31.59C3.26 31.95 3.67 32.18 4.1 32.23L4.29 32.24L25.7 32.24C26.2 32.24 26.69 32.01 27.03 31.59C27.35 31.2 27.52 30.7 27.49 30.18L27.48 29.99L25.07 12.24L22.5 12.24ZM11.34 6.12L11.34 6.35L11.34 9.74L19.9 9.74L19.9 6.35C19.9 5.26 19.45 4.22 18.65 3.45C17.85 2.67 16.76 2.24 15.62 2.24C13.34 2.24 11.47 3.96 11.34 6.12Z" stroke="#000000" stroke-opacity="1.000000" stroke-width="0.300000" stroke-linejoin="round"/>
</svg>
