<svg width="31.000000" height="31.000000" viewBox="0 0 31 31" fill="none" xmlns="http://www.w3.org/2000/svg" xmlns:xlink="http://www.w3.org/1999/xlink">
	<desc>
			Created with Pixso.
	</desc>
	<defs/>
	<path id="Vector" d="M29.19 -0.83C29.67 -0.83 30.08 -0.65 30.41 -0.33C30.75 0.03 30.91 0.42 30.91 0.92L30.91 28.36C30.91 28.84 30.73 29.25 30.41 29.59C30.25 29.76 30.06 29.88 29.84 29.97C29.63 30.06 29.4 30.1 29.17 30.09L21.36 30.09L21.36 18.18L25.36 18.18L25.92 13.47L21.36 13.47L21.36 10.44C21.36 9.73 21.54 9.16 21.86 8.79C22.18 8.44 22.75 8.22 23.64 8.22L26.08 8.22L26.08 4.04C25.01 3.94 23.82 3.87 22.5 3.87C20.71 3.87 19.25 4.4 18.15 5.47C17.04 6.53 16.49 8.03 16.49 9.96L16.49 13.47L12.51 13.47L12.51 18.18L16.49 18.18L16.49 30.09L1.74 30.09C1.24 30.09 0.85 29.91 0.49 29.59C0.33 29.43 0.2 29.24 0.11 29.02C0.03 28.81 -0.01 28.58 0 28.35L0 0.92C0 0.44 0.17 0.03 0.49 -0.31C0.65 -0.48 0.85 -0.6 1.06 -0.69C1.28 -0.78 1.51 -0.82 1.74 -0.81L29.19 -0.81L29.19 -0.83Z" fill="#000000" fill-opacity="1.000000" fill-rule="nonzero"/>
</svg>
