<svg width="32.000000" height="31.000000" viewBox="0 0 32 31" fill="none" xmlns="http://www.w3.org/2000/svg" xmlns:xlink="http://www.w3.org/1999/xlink">
	<desc>
			Created with Pixso.
	</desc>
	<defs/>
	<path id="Vector" d="M15.59 1.9C19.75 1.9 20.24 1.91 21.88 1.99C23.41 2.06 24.23 2.31 24.78 2.52C25.51 2.82 26.02 3.14 26.57 3.69C27.11 4.23 27.46 4.76 27.73 5.47C27.94 6.04 28.21 6.86 28.26 8.39C28.35 10.02 28.37 10.52 28.37 14.68C28.37 18.84 28.35 19.34 28.28 20.97C28.27 21.96 28.09 22.94 27.75 23.87C27.44 24.6 27.12 25.12 26.57 25.67C26.04 26.2 25.51 26.56 24.78 26.84C24.23 27.05 23.41 27.3 21.88 27.37C20.24 27.44 19.75 27.46 15.59 27.46C11.43 27.46 10.93 27.46 9.28 27.37C8.29 27.36 7.32 27.18 6.4 26.84C5.65 26.56 5.15 26.22 4.6 25.67C4.05 25.13 3.71 24.6 3.43 23.89C3.08 22.95 2.9 21.97 2.89 20.97C2.82 19.34 2.8 18.84 2.8 14.68C2.8 10.52 2.8 10.02 2.89 8.39C2.96 6.86 3.21 6.04 3.43 5.49C3.71 4.76 4.05 4.24 4.6 3.69C5.13 3.16 5.67 2.8 6.38 2.54C6.95 2.32 7.76 2.06 9.28 2C10.93 1.91 11.41 1.9 15.59 1.9ZM15.59 -0.91C11.36 -0.91 10.82 -0.89 9.15 -0.82C7.5 -0.75 6.36 -0.47 5.36 -0.11C4.35 0.3 3.48 0.85 2.61 1.7C1.77 2.57 1.24 3.44 0.81 4.46C0.42 5.45 0.16 6.59 0.1 8.24C0 9.93 0 10.47 0 14.68C0 18.89 0.01 19.44 0.08 21.1C0.16 22.77 0.44 23.89 0.8 24.88C1.2 25.91 1.76 26.79 2.61 27.66C3.48 28.51 4.35 29.04 5.36 29.45C6.36 29.84 7.5 30.11 9.15 30.16C10.82 30.25 11.36 30.27 15.59 30.27C19.84 30.27 20.35 30.25 22.02 30.18C23.68 30.11 24.81 29.83 25.81 29.45C26.85 29.06 27.79 28.45 28.56 27.66C29.43 26.79 29.97 25.91 30.36 24.88C30.75 23.91 31.02 22.77 31.09 21.1C31.16 19.44 31.18 18.91 31.18 14.68C31.18 10.43 31.18 9.91 31.09 8.24C31.07 6.95 30.83 5.67 30.38 4.46C29.98 3.42 29.36 2.48 28.56 1.7C27.78 0.91 26.85 0.3 25.81 -0.09C24.6 -0.55 23.32 -0.8 22.02 -0.82C19.88 -0.91 17.73 -0.94 15.59 -0.91Z" fill="#000000" fill-opacity="1.000000" fill-rule="nonzero"/>
	<path id="Vector" d="M15.64 6.2C13.52 6.2 11.48 7.04 9.98 8.54C8.48 10.04 7.64 12.08 7.64 14.2C7.64 16.32 8.48 18.36 9.98 19.86C11.48 21.36 13.52 22.2 15.64 22.2C17.76 22.2 19.8 21.36 21.3 19.86C22.8 18.36 23.64 16.32 23.64 14.2C23.64 12.08 22.8 10.04 21.3 8.54C19.8 7.04 17.76 6.2 15.64 6.2ZM15.64 19.41C14.96 19.41 14.28 19.27 13.65 19.01C13.02 18.75 12.45 18.37 11.96 17.89C11.48 17.4 11.1 16.83 10.84 16.2C10.57 15.57 10.44 14.89 10.44 14.21C10.44 13.53 10.57 12.85 10.84 12.22C11.1 11.59 11.48 11.01 11.96 10.53C12.45 10.05 13.02 9.67 13.65 9.4C14.28 9.14 14.96 9.01 15.64 9.01C17.02 9.01 18.34 9.56 19.32 10.53C20.29 11.51 20.84 12.83 20.84 14.21C20.84 15.59 20.29 16.91 19.32 17.89C18.34 18.86 17.02 19.41 15.64 19.41ZM23.87 7.98C24.37 7.98 24.84 7.78 25.19 7.43C25.54 7.08 25.74 6.61 25.74 6.11C25.74 5.62 25.54 5.14 25.19 4.79C24.84 4.44 24.37 4.24 23.87 4.24C23.38 4.24 22.9 4.44 22.55 4.79C22.2 5.14 22 5.62 22 6.11C22 6.61 22.2 7.08 22.55 7.43C22.9 7.78 23.38 7.98 23.87 7.98Z" fill="#000000" fill-opacity="1.000000" fill-rule="nonzero"/>
</svg>
