<svg width="29.000000" height="34.000000" viewBox="0 0 29 34" fill="none" xmlns="http://www.w3.org/2000/svg" xmlns:xlink="http://www.w3.org/1999/xlink">
	<desc>
			Created with Pixso.
	</desc>
	<defs/>
	<path id="Vector" d="M24.89 22.85C26.4 24.36 27.33 26.44 27.33 28.74L27.33 32.07L0.66 32.07L0.66 28.74C0.66 26.44 1.59 24.36 3.1 22.85C4.61 21.34 6.69 20.41 9 20.41L19 20.41C21.3 20.41 23.38 21.34 24.89 22.85ZM18.87 2.19C20.03 3.29 20.79 4.81 20.87 6.5L20.88 8.16C20.88 9.93 20.15 11.53 18.98 12.69C17.8 13.85 16.17 14.57 14.38 14.57C12.64 14.57 11.05 13.9 9.88 12.79C8.72 11.69 7.97 10.17 7.89 8.48L7.88 6.82C7.88 5.05 8.61 3.45 9.78 2.29C10.96 1.13 12.58 0.41 14.38 0.41C16.12 0.41 17.7 1.09 18.87 2.19Z" stroke="#000000" stroke-opacity="1.000000" stroke-width="2.000000"/>
</svg>
