<svg width="140.000000" height="55.000000" viewBox="0 0 140 55" fill="none" xmlns="http://www.w3.org/2000/svg" xmlns:xlink="http://www.w3.org/1999/xlink">
	<desc>
			Created with Pixso.
	</desc>
	<defs/>
	<path id="Vector" d="M27.13 1.53C27.52 1.53 27.84 1.85 27.84 2.24L27.84 10.57C27.84 10.96 27.52 11.28 27.13 11.28L19.56 11.28L19.56 53.3C19.56 53.7 19.25 54.01 18.85 54.01L8.98 54.01C8.59 54.01 8.27 53.7 8.27 53.3L8.27 11.28L0.71 11.28C0.31 11.28 0 10.96 0 10.57L0 2.24C0 1.85 0.31 1.53 0.71 1.53L27.13 1.53ZM68.12 1.53C73.03 1.53 76.77 2.73 79.33 5.13C81.89 7.53 83.17 10.7 83.17 14.65C83.17 18.6 81.94 21.71 79.48 23.98C77.02 26.26 73.23 27.4 68.12 27.4L68.12 28.52L71.13 28.52C75.09 28.52 78.03 29.42 79.93 31.22C81.84 33.02 82.79 35.62 82.79 39.02L82.79 49.51C82.79 50.36 82.88 51.04 83.06 51.54C83.23 52.04 83.45 52.41 83.7 52.66C83.95 52.96 84.27 53.16 84.67 53.26L84.67 54.01L75.27 54.01C73.96 54.01 73.01 53.66 72.41 52.96C71.8 52.26 71.5 50.86 71.5 48.76L71.5 37.14C71.5 34.64 70.37 33.39 68.12 33.39L68.12 53.3C68.12 53.7 67.8 54.01 67.41 54.01L57.54 54.01C57.15 54.01 56.83 53.7 56.83 53.3L56.83 2.24C56.83 1.85 57.15 1.53 57.54 1.53L68.12 1.53ZM96.66 1.53C97.05 1.53 97.37 1.85 97.37 2.24L97.37 44.27L106.82 44.27C107.21 44.27 107.53 44.58 107.53 44.97L107.53 53.3C107.53 53.7 107.21 54.01 106.82 54.01L86.79 54.01C86.4 54.01 86.08 53.7 86.08 53.3L86.08 2.24C86.08 1.85 86.4 1.53 86.79 1.53L96.66 1.53ZM39.78 0C44.82 0 49.05 3.76 49.62 8.75L54.55 53.23C54.6 53.65 54.27 54.01 53.85 54.01L43.64 54.01C43.27 54.01 42.96 53.72 42.93 53.35L42.45 45.39L37.1 45.39L36.62 53.35C36.6 53.72 36.28 54.01 35.91 54.01L25.71 54.01C25.28 54.01 24.95 53.65 25 53.23L29.93 8.75C30.49 3.85 34.59 0.13 39.5 0L39.78 0ZM124.38 0C129.41 0 133.65 3.76 134.22 8.75L139.15 53.23C139.2 53.65 138.87 54.01 138.45 54.01L128.24 54.01C127.87 54.01 127.56 53.72 127.53 53.35L127.05 45.39L121.7 45.39L121.22 53.35C121.2 53.72 120.88 54.01 120.51 54.01L110.31 54.01C109.88 54.01 109.55 53.65 109.6 53.23L114.53 8.75C115.09 3.85 119.18 0.13 124.1 0L124.38 0ZM39.78 12.03C39.46 12.03 39.19 12.27 39.17 12.59L37.48 35.64L42.07 35.64L40.38 12.59C40.36 12.27 40.1 12.03 39.78 12.03ZM124.38 12.03C124.06 12.03 123.79 12.27 123.77 12.59L122.08 35.64L126.67 35.64L124.98 12.59C124.96 12.27 124.69 12.03 124.38 12.03ZM68.49 9.78L68.12 9.78L68.12 22.52L68.49 22.52C69.45 22.52 70.25 22.07 70.9 21.17C71.55 20.27 71.88 18.6 71.88 16.15C71.88 13.7 71.55 12.03 70.9 11.13C70.25 10.23 69.45 9.78 68.49 9.78Z" fill="#000000" fill-opacity="1.000000" fill-rule="evenodd"/>
</svg>
