<svg width="32.000000" height="31.000000" viewBox="0 0 32 31" fill="none" xmlns="http://www.w3.org/2000/svg" xmlns:xlink="http://www.w3.org/1999/xlink">
	<desc>
			Created with Pixso.
	</desc>
	<defs/>
	<path id="Vector" d="M16 -0.41C7.16 -0.41 0 6.53 0 15.09C0 23.64 7.16 30.59 16 30.59C24.83 30.59 32 23.64 32 15.09C32 6.53 24.83 -0.41 16 -0.41ZM22.49 22.39C22.22 22.39 22.05 22.31 21.8 22.17C17.78 19.82 13.09 19.72 8.47 20.64C8.21 20.7 7.89 20.8 7.7 20.8C7.07 20.8 6.68 20.32 6.68 19.81C6.68 19.17 7.07 18.86 7.56 18.76C12.84 17.63 18.24 17.73 22.85 20.4C23.24 20.64 23.47 20.86 23.47 21.43C23.47 22 23.01 22.39 22.49 22.39ZM24.23 18.29C23.89 18.29 23.67 18.15 23.43 18.03C19.4 15.72 13.39 14.79 8.04 16.2C7.73 16.28 7.56 16.36 7.27 16.36C6.58 16.36 6.02 15.81 6.02 15.14C6.02 14.48 6.36 14.03 7.02 13.85C8.81 13.36 10.65 13 13.33 13C17.52 13 21.56 14.01 24.75 15.85C25.27 16.14 25.48 16.53 25.48 17.08C25.47 17.75 24.93 18.29 24.23 18.29ZM26.23 13.53C25.89 13.53 25.69 13.45 25.4 13.29C20.8 10.63 12.59 10 7.27 11.43C7.04 11.5 6.75 11.6 6.44 11.6C5.59 11.6 4.94 10.95 4.94 10.12C4.94 9.27 5.48 8.79 6.06 8.63C8.33 7.98 10.87 7.68 13.64 7.68C18.35 7.68 23.29 8.63 26.89 10.66C27.4 10.95 27.72 11.33 27.72 12.08C27.72 12.93 27.01 13.53 26.23 13.53Z" fill="#000000" fill-opacity="1.000000" fill-rule="nonzero"/>
</svg>
