<svg width="31.000000" height="31.000000" viewBox="0 0 31 31" fill="none" xmlns="http://www.w3.org/2000/svg" xmlns:xlink="http://www.w3.org/1999/xlink">
	<desc>
			Created with Pixso.
	</desc>
	<defs/>
	<path id="Vector" d="M16.04 -0.91L22 -0.91C22 -0.91 21.66 5.88 30.26 6.38L30.26 11.62C30.26 11.62 25.66 11.87 22 9.38L22.05 20.23C22.05 22.17 21.41 24.07 20.19 25.68C18.98 27.29 17.25 28.55 15.24 29.29C13.22 30.04 11 30.23 8.85 29.85C6.71 29.47 4.74 28.53 3.2 27.16C1.66 25.79 0.61 24.04 0.18 22.13C-0.24 20.23 -0.02 18.25 0.82 16.46C1.66 14.67 3.08 13.13 4.9 12.06C6.71 10.98 8.85 10.41 11.04 10.41L12.58 10.41L12.58 15.8C11.57 15.52 10.49 15.54 9.5 15.83C8.5 16.13 7.63 16.7 7.02 17.47C6.41 18.23 6.09 19.14 6.1 20.08C6.1 21.01 6.44 21.92 7.06 22.67C7.69 23.43 8.56 23.99 9.56 24.27C10.56 24.56 11.64 24.56 12.64 24.27C13.64 23.98 14.51 23.42 15.13 22.67C15.75 21.91 16.09 21 16.1 20.07L16.04 -0.91Z" fill="#000000" fill-opacity="1.000000" fill-rule="nonzero"/>
</svg>
