<svg width="31.000000" height="29.000000" viewBox="0 0 31 29" fill="none" xmlns="http://www.w3.org/2000/svg" xmlns:xlink="http://www.w3.org/1999/xlink">
	<desc>
			Created with Pixso.
	</desc>
	<defs/>
	<path id="Vector" d="M30.36 2.64C29.51 4.14 28.46 5.45 27.24 6.52C27.24 6.62 27.24 6.8 27.28 7.01L27.32 7.5C27.31 11.71 26.26 15.82 24.31 19.32C23.3 21.13 22.11 22.77 20.72 24.18C19.23 25.67 17.53 26.83 15.71 27.6C13.11 28.71 10.34 29.1 7.59 28.74C4.85 28.38 2.22 27.27 -0.12 25.5C0.49 25.55 0.97 25.59 1.36 25.59C4.28 25.59 6.87 24.52 9.15 22.39C7.84 22.34 6.58 21.81 5.53 20.88C4.48 19.95 3.7 18.65 3.28 17.16C4.21 17.44 5.19 17.39 6.11 17.04C4.69 16.7 3.42 15.79 2.52 14.45C1.58 13.13 1.08 11.45 1.09 9.72L1.09 9.65C1.91 10.17 2.84 10.44 3.9 10.51C3.05 9.83 2.36 8.91 1.88 7.83C1.4 6.75 1.16 5.54 1.16 4.32C1.16 3.02 1.41 1.76 1.96 0.5C3.51 2.82 5.45 4.71 7.65 6.05C9.91 7.42 12.38 8.2 14.91 8.33C14.77 7.78 14.69 7.2 14.68 6.62C14.68 4.56 15.28 2.78 16.51 1.33C17.1 0.61 17.8 0.05 18.58 -0.33C19.36 -0.71 20.2 -0.89 21.04 -0.86C21.89 -0.86 22.72 -0.65 23.5 -0.25C24.28 0.15 24.98 0.74 25.56 1.48C26.98 1.16 28.29 0.54 29.52 -0.33C29.07 1.41 28.1 2.89 26.78 3.81C28.1 3.6 29.27 3.21 30.36 2.66L30.36 2.64Z" fill="#000000" fill-opacity="1.000000" fill-rule="nonzero"/>
</svg>
