<svg width="83.000000" height="48.000000" viewBox="0 0 83 48" fill="none" xmlns="http://www.w3.org/2000/svg" xmlns:xlink="http://www.w3.org/1999/xlink">
	<desc>
			Created with Pixso.
	</desc>
	<defs/>
	<path id="path" d="M34.84 1.71C32.71 2.78 27.38 5.18 23.24 7.05C18.98 8.78 15.51 11.18 15.51 12.11C15.51 13.18 13.64 15.45 11.51 17.45C9.24 19.31 7.51 22.11 7.51 23.58C7.51 25.05 6.58 26.91 5.38 27.98C2.04 30.65 -0.76 37.05 0.18 39.98C0.71 41.45 2.31 43.85 3.91 45.18C6.04 47.18 8.58 47.85 14.44 47.85C19.11 47.85 24.04 46.91 26.58 45.58C28.98 44.38 33.38 43.58 36.58 43.71C39.78 43.71 43.64 43.18 45.24 42.25C47.91 40.78 52.31 40.25 65.24 39.98C72.31 39.85 78.98 37.31 80.71 34.11L82.44 30.91L78.84 23.71C74.71 15.45 71.78 11.85 69.38 11.85C68.44 11.85 66.18 10.38 64.31 8.51C61.78 5.98 59.51 5.18 55.24 5.18C51.11 5.18 48.84 4.38 47.11 2.51C44.44 -0.55 40.44 -0.82 34.84 1.71ZM46.04 4.91C46.84 6.38 46.84 8.11 46.04 9.31C44.31 11.98 44.58 24.11 46.44 31.31L48.18 37.45L45.51 39.31C44.04 40.38 40.84 41.18 38.31 40.91C34.84 40.65 33.24 39.58 31.51 36.25C30.31 33.85 27.78 29.98 26.04 27.58C24.18 25.18 21.64 20.91 20.18 18.25L17.64 13.45L19.38 11.31C20.44 10.11 22.18 9.18 23.38 9.18C24.58 9.18 28.58 7.71 32.18 5.85C35.91 4.11 40.18 2.51 41.78 2.51C43.38 2.51 45.38 3.58 46.04 4.91ZM62.04 9.05L64.04 10.25L62.31 17.45C61.38 21.31 60.18 27.45 59.78 31.18L58.84 37.85L54.84 37.85L50.98 37.85L49.38 32.51C47.24 25.45 47.11 11.45 49.11 9.45C50.98 7.58 59.38 7.31 62.04 9.05ZM69.91 14.38C71.24 15.05 74.04 19.31 76.18 23.71L80.04 31.85L77.91 33.98C75.91 36.11 64.58 37.31 62.84 35.58C61.91 34.65 64.31 16.38 65.64 14.38C66.58 12.91 67.11 12.91 69.91 14.38ZM20.18 22.11C21.64 24.91 24.44 29.31 26.44 31.98C28.44 34.65 30.18 37.85 30.18 39.05C30.18 41.18 23.78 45.18 20.44 45.18C19.38 45.18 17.38 41.98 15.78 38.11C14.31 34.38 12.31 29.18 11.38 26.78L9.51 22.25L12.71 19.71C14.44 18.38 16.18 17.18 16.71 17.18C17.11 17.18 18.71 19.45 20.18 22.11ZM11.51 32.78C12.44 34.91 13.64 38.51 14.18 40.78L15.24 45.18L10.84 45.18C7.64 45.18 5.64 44.25 4.31 42.25C3.11 40.65 2.18 38.51 2.18 37.71C2.18 35.85 7.24 29.18 8.71 29.18C9.24 29.18 10.58 30.78 11.51 32.78Z" fill="#000000" fill-opacity="1.000000" fill-rule="nonzero"/>
	<path id="path" d="M23.24 7.05C18.98 8.78 15.51 11.18 15.51 12.11C15.51 13.18 13.64 15.45 11.51 17.45C9.24 19.31 7.51 22.11 7.51 23.58C7.51 25.05 6.58 26.91 5.38 27.98C2.04 30.65 -0.76 37.05 0.18 39.98C0.71 41.45 2.31 43.85 3.91 45.18C6.04 47.18 8.58 47.85 14.44 47.85C19.11 47.85 24.04 46.91 26.58 45.58C28.98 44.38 33.38 43.58 36.58 43.71C39.78 43.71 43.64 43.18 45.24 42.25C47.91 40.78 52.31 40.25 65.24 39.98C72.31 39.85 78.98 37.31 80.71 34.11L82.44 30.91L78.84 23.71C74.71 15.45 71.78 11.85 69.38 11.85C68.44 11.85 66.18 10.38 64.31 8.51C61.78 5.98 59.51 5.18 55.24 5.18C51.11 5.18 48.84 4.38 47.11 2.51C44.44 -0.55 40.44 -0.82 34.84 1.71C32.71 2.78 27.38 5.18 23.24 7.05ZM46.04 9.31C44.31 11.98 44.58 24.11 46.44 31.31L48.18 37.45L45.51 39.31C44.04 40.38 40.84 41.18 38.31 40.91C34.84 40.65 33.24 39.58 31.51 36.25C30.31 33.85 27.78 29.98 26.04 27.58C24.18 25.18 21.64 20.91 20.18 18.25L17.64 13.45L19.38 11.31C20.44 10.11 22.18 9.18 23.38 9.18C24.58 9.18 28.58 7.71 32.18 5.85C35.91 4.11 40.18 2.51 41.78 2.51C43.38 2.51 45.38 3.58 46.04 4.91C46.84 6.38 46.84 8.11 46.04 9.31ZM64.04 10.25L62.31 17.45C61.38 21.31 60.18 27.45 59.78 31.18L58.84 37.85L54.84 37.85L50.98 37.85L49.38 32.51C47.24 25.45 47.11 11.45 49.11 9.45C50.98 7.58 59.38 7.31 62.04 9.05L64.04 10.25ZM76.18 23.71L80.04 31.85L77.91 33.98C75.91 36.11 64.58 37.31 62.84 35.58C61.91 34.65 64.31 16.38 65.64 14.38C66.58 12.91 67.11 12.91 69.91 14.38C71.24 15.05 74.04 19.31 76.18 23.71ZM26.44 31.98C28.44 34.65 30.18 37.85 30.18 39.05C30.18 41.18 23.78 45.18 20.44 45.18C19.38 45.18 17.38 41.98 15.78 38.11C14.31 34.38 12.31 29.18 11.38 26.78L9.51 22.25L12.71 19.71C14.44 18.38 16.18 17.18 16.71 17.18C17.11 17.18 18.71 19.45 20.18 22.11C21.64 24.91 24.44 29.31 26.44 31.98ZM14.18 40.78L15.24 45.18L10.84 45.18C7.64 45.18 5.64 44.25 4.31 42.25C3.11 40.65 2.18 38.51 2.18 37.71C2.18 35.85 7.24 29.18 8.71 29.18C9.24 29.18 10.58 30.78 11.51 32.78C12.44 34.91 13.64 38.51 14.18 40.78Z" stroke="#000000" stroke-opacity="1.000000" stroke-width="0.133333"/>
	<path id="path" d="M34.84 8.78C32.58 9.98 30.71 11.05 30.44 11.18C30.18 11.45 32.44 15.45 35.38 19.98C38.44 24.65 40.84 28.91 40.84 29.45C40.84 29.98 41.51 30.51 42.18 30.51C42.98 30.51 43.51 28.38 43.51 25.85C43.51 23.31 42.98 21.18 42.18 21.18C41.51 21.18 40.84 18.25 40.84 14.65C40.84 10.91 40.44 7.71 39.78 7.45C39.24 7.05 36.98 7.71 34.84 8.78Z" fill="#000000" fill-opacity="1.000000" fill-rule="nonzero"/>
	<path id="path" d="M30.44 11.18C30.18 11.45 32.44 15.45 35.38 19.98C38.44 24.65 40.84 28.91 40.84 29.45C40.84 29.98 41.51 30.51 42.18 30.51C42.98 30.51 43.51 28.38 43.51 25.85C43.51 23.31 42.98 21.18 42.18 21.18C41.51 21.18 40.84 18.25 40.84 14.65C40.84 10.91 40.44 7.71 39.78 7.45C39.24 7.05 36.98 7.71 34.84 8.78C32.58 9.98 30.71 11.05 30.44 11.18Z" stroke="#000000" stroke-opacity="1.000000" stroke-width="0.133333"/>
</svg>
