<svg width="85.000000" height="72.000000" viewBox="0 0 85 72" fill="none" xmlns="http://www.w3.org/2000/svg" xmlns:xlink="http://www.w3.org/1999/xlink">
	<desc>
			Created with Pixso.
	</desc>
	<defs/>
	<path id="path" d="M41.15 8.66C41.15 13.6 41.68 17.33 42.48 17.33C43.28 17.33 43.82 14.4 43.82 10.8C43.82 6.79 44.48 4 45.55 3.59C46.75 3.06 46.62 2.53 45.15 1.46C44.08 0.66 42.75 0 42.22 0C41.55 0 41.15 3.86 41.15 8.66Z" fill="#000000" fill-opacity="1.000000" fill-rule="nonzero"/>
	<path id="path" d="M42.48 17.33C43.28 17.33 43.82 14.4 43.82 10.8C43.82 6.79 44.48 4 45.55 3.59C46.75 3.06 46.62 2.53 45.15 1.46C44.08 0.66 42.75 0 42.22 0C41.55 0 41.15 3.86 41.15 8.66C41.15 13.6 41.68 17.33 42.48 17.33Z" stroke="#000000" stroke-opacity="1.000000" stroke-width="0.133333"/>
	<path id="path" d="M22.48 8.93C22.48 11.06 25.82 18.66 26.75 18.66C27.95 18.66 28.22 13.2 27.02 10.13C26.22 8.13 22.48 7.06 22.48 8.93Z" fill="#000000" fill-opacity="1.000000" fill-rule="nonzero"/>
	<path id="path" d="M26.75 18.66C27.95 18.66 28.22 13.2 27.02 10.13C26.22 8.13 22.48 7.06 22.48 8.93C22.48 11.06 25.82 18.66 26.75 18.66Z" stroke="#000000" stroke-opacity="1.000000" stroke-width="0.133333"/>
	<path id="path" d="M58.08 14.13C55.95 16.66 54.62 19.2 55.02 19.6C56.08 20.8 63.82 13.33 63.82 11.06C63.82 8.13 61.95 9.06 58.08 14.13Z" fill="#000000" fill-opacity="1.000000" fill-rule="nonzero"/>
	<path id="path" d="M55.02 19.6C56.08 20.8 63.82 13.33 63.82 11.06C63.82 8.13 61.95 9.06 58.08 14.13C55.95 16.66 54.62 19.2 55.02 19.6Z" stroke="#000000" stroke-opacity="1.000000" stroke-width="0.133333"/>
	<path id="path" d="M8.62 14.4C7.68 15.86 16.35 24.4 17.55 23.2C17.95 22.8 17.02 20.4 15.42 17.86C12.62 13.46 9.95 12.13 8.62 14.4Z" fill="#000000" fill-opacity="1.000000" fill-rule="nonzero"/>
	<path id="path" d="M17.55 23.2C17.95 22.8 17.02 20.4 15.42 17.86C12.62 13.46 9.95 12.13 8.62 14.4C7.68 15.86 16.35 24.4 17.55 23.2Z" stroke="#000000" stroke-opacity="1.000000" stroke-width="0.133333"/>
	<path id="path" d="M71.82 18C69.28 20.53 67.82 22.66 68.35 22.66C70.75 22.66 79.82 16.79 79.42 15.46C78.48 12.66 76.22 13.46 71.82 18Z" fill="#000000" fill-opacity="1.000000" fill-rule="nonzero"/>
	<path id="path" d="M68.35 22.66C70.75 22.66 79.82 16.79 79.42 15.46C78.48 12.66 76.22 13.46 71.82 18C69.28 20.53 67.82 22.66 68.35 22.66Z" stroke="#000000" stroke-opacity="1.000000" stroke-width="0.133333"/>
	<path id="path" d="M22.75 25.46C18.22 27.73 13.55 30.93 12.35 32.66C7.55 40 -3.38 71.73 1.02 65.33C1.82 64.26 3.28 60.66 4.35 57.33C5.42 54 7.95 47.6 9.95 42.93C13.42 35.2 14.08 34.4 19.42 33.06C22.62 32.26 25.55 31.2 25.95 30.53C27.55 27.86 31.55 29.6 35.68 34.66C37.95 37.59 39.55 40 39.15 40C38.75 40 36.62 38.8 34.62 37.2C29.82 33.59 25.68 34.8 24.48 39.86C23.95 42.13 24.48 45.73 25.68 48.53C27.15 52.13 29.28 54 34.08 56.26C37.68 58.13 40.62 60.4 40.88 61.86C41.28 64 40.88 64.26 38.35 63.46C36.62 62.93 31.15 61.86 26.08 61.06C19.28 59.86 16.75 59.86 15.55 61.06C14.35 62.26 14.48 62.66 16.22 62.66C17.42 62.66 18.48 63.06 18.48 63.6C18.48 64.13 17.15 65.86 15.55 67.6C13.95 69.33 13.15 71.06 13.55 71.6C14.08 72 16.48 70.13 18.88 67.33C23.15 62.4 23.15 62.4 30.48 63.73C41.42 65.86 57.15 66.8 62.35 65.6C64.88 65.06 67.15 63.86 67.55 62.8C67.95 61.46 67.55 61.33 65.68 62.4C61.28 64.53 52.35 65.33 47.95 63.86C43.15 62.13 42.48 60 46.62 60C50.35 60 60.62 49.73 61.82 44.93C62.48 42.26 62.08 40.53 60.48 38.66C59.15 37.2 57.28 36 56.48 36C55.55 36 53.28 37.2 51.42 38.66C48.35 41.2 43.82 42.26 43.82 40.66C43.82 38.93 51.55 33.33 55.55 32.13C61.15 30.53 68.35 32.53 70.75 36.4C71.82 38 75.15 45.46 78.35 53.06C81.55 60.53 84.35 66.53 84.75 66.26C85.02 65.86 82.88 59.73 80.08 52.53C77.15 45.2 74.08 37.06 73.28 34.4C71.28 28.26 66.75 24.53 59.68 23.33C54.88 22.53 53.95 22.8 49.15 27.2C46.22 29.86 43.55 32 43.15 32C42.75 32 40.35 29.6 37.68 26.66C35.02 23.73 32.48 21.33 31.95 21.33C31.55 21.33 27.42 23.2 22.75 25.46ZM35.68 28.26C40.88 33.73 41.15 36.4 36.08 31.6C33.82 29.33 30.75 28 28.35 28C24.48 27.86 24.48 27.86 27.82 26C29.68 24.93 31.28 24.13 31.42 24C31.55 24 33.55 26 35.68 28.26ZM65.82 28.66C70.08 32.13 69.02 33.33 64.62 30C61.28 27.46 58.75 27.46 53.95 30C51.95 31.06 49.82 32 49.42 32C49.02 32 50.08 30.53 51.82 28.66C53.55 26.8 56.48 25.33 58.35 25.33C60.22 25.33 63.68 26.8 65.82 28.66ZM23.68 28.4C23.42 28.53 21.95 29.6 20.48 30.66C17.95 32.53 17.95 32.53 19.68 30.26C20.62 29.06 22.08 28 22.88 28C23.68 28 23.95 28.13 23.68 28.4ZM33.95 40.13C38.35 44.26 45.68 44.66 51.15 41.33C55.82 38.53 59.82 38.93 59.82 42.26C59.82 45.2 54.75 52.93 51.42 55.33C47.42 58.13 42.22 57.86 35.15 54.4C30.22 52 28.88 50.53 27.82 46.53C26.35 41.33 27.15 37.33 29.55 37.33C30.35 37.33 32.35 38.66 33.95 40.13Z" fill="#000000" fill-opacity="1.000000" fill-rule="nonzero"/>
	<path id="path" d="M12.35 32.66C7.55 40 -3.38 71.73 1.02 65.33C1.82 64.26 3.28 60.66 4.35 57.33C5.42 54 7.95 47.6 9.95 42.93C13.42 35.2 14.08 34.4 19.42 33.06C22.62 32.26 25.55 31.2 25.95 30.53C27.55 27.86 31.55 29.6 35.68 34.66C37.95 37.59 39.55 40 39.15 40C38.75 40 36.62 38.8 34.62 37.2C29.82 33.59 25.68 34.8 24.48 39.86C23.95 42.13 24.48 45.73 25.68 48.53C27.15 52.13 29.28 54 34.08 56.26C37.68 58.13 40.62 60.4 40.88 61.86C41.28 64 40.88 64.26 38.35 63.46C36.62 62.93 31.15 61.86 26.08 61.06C19.28 59.86 16.75 59.86 15.55 61.06C14.35 62.26 14.48 62.66 16.22 62.66C17.42 62.66 18.48 63.06 18.48 63.6C18.48 64.13 17.15 65.86 15.55 67.6C13.95 69.33 13.15 71.06 13.55 71.6C14.08 72 16.48 70.13 18.88 67.33C23.15 62.4 23.15 62.4 30.48 63.73C41.42 65.86 57.15 66.8 62.35 65.6C64.88 65.06 67.15 63.86 67.55 62.8C67.95 61.46 67.55 61.33 65.68 62.4C61.28 64.53 52.35 65.33 47.95 63.86C43.15 62.13 42.48 60 46.62 60C50.35 60 60.62 49.73 61.82 44.93C62.48 42.26 62.08 40.53 60.48 38.66C59.15 37.2 57.28 36 56.48 36C55.55 36 53.28 37.2 51.42 38.66C48.35 41.2 43.82 42.26 43.82 40.66C43.82 38.93 51.55 33.33 55.55 32.13C61.15 30.53 68.35 32.53 70.75 36.4C71.82 38 75.15 45.46 78.35 53.06C81.55 60.53 84.35 66.53 84.75 66.26C85.02 65.86 82.88 59.73 80.08 52.53C77.15 45.2 74.08 37.06 73.28 34.4C71.28 28.26 66.75 24.53 59.68 23.33C54.88 22.53 53.95 22.8 49.15 27.2C46.22 29.86 43.55 32 43.15 32C42.75 32 40.35 29.6 37.68 26.66C35.02 23.73 32.48 21.33 31.95 21.33C31.55 21.33 27.42 23.2 22.75 25.46C18.22 27.73 13.55 30.93 12.35 32.66ZM36.08 31.6C33.82 29.33 30.75 28 28.35 28C24.48 27.86 24.48 27.86 27.82 26C29.68 24.93 31.28 24.13 31.42 24C31.55 24 33.55 26 35.68 28.26C40.88 33.73 41.15 36.4 36.08 31.6ZM64.62 30C61.28 27.46 58.75 27.46 53.95 30C51.95 31.06 49.82 32 49.42 32C49.02 32 50.08 30.53 51.82 28.66C53.55 26.8 56.48 25.33 58.35 25.33C60.22 25.33 63.68 26.8 65.82 28.66C70.08 32.13 69.02 33.33 64.62 30ZM20.48 30.66C17.95 32.53 17.95 32.53 19.68 30.26C20.62 29.06 22.08 28 22.88 28C23.68 28 23.95 28.13 23.68 28.4C23.42 28.53 21.95 29.6 20.48 30.66ZM51.15 41.33C55.82 38.53 59.82 38.93 59.82 42.26C59.82 45.2 54.75 52.93 51.42 55.33C47.42 58.13 42.22 57.86 35.15 54.4C30.22 52 28.88 50.53 27.82 46.53C26.35 41.33 27.15 37.33 29.55 37.33C30.35 37.33 32.35 38.66 33.95 40.13C38.35 44.26 45.68 44.66 51.15 41.33Z" stroke="#000000" stroke-opacity="1.000000" stroke-width="0.133333"/>
	<path id="path" d="M66.48 67.19C66.48 67.46 67.55 68.53 68.88 69.46C70.88 71.19 71.02 71.06 69.28 68.93C67.55 66.79 66.48 66.13 66.48 67.19Z" fill="#000000" fill-opacity="1.000000" fill-rule="nonzero"/>
	<path id="path" d="M68.88 69.46C70.88 71.19 71.02 71.06 69.28 68.93C67.55 66.79 66.48 66.13 66.48 67.19C66.48 67.46 67.55 68.53 68.88 69.46Z" stroke="#000000" stroke-opacity="1.000000" stroke-width="0.133333"/>
</svg>
