<svg width="60.000000" height="58.000000" viewBox="0 0 60 58" fill="none" xmlns="http://www.w3.org/2000/svg" xmlns:xlink="http://www.w3.org/1999/xlink">
	<desc>
			Created with Pixso.
	</desc>
	<defs/>
	<path id="path" d="M8.26 4C5.2 6.13 2.13 9.06 1.46 10.53C0.66 12 0 16.13 0 19.86C0 23.46 0.53 28 1.33 29.86C2 31.73 4.93 34.8 8 36.8C10.93 38.8 13.33 41.2 13.33 42.13C13.33 43.2 12.4 44 11.2 44C9.6 44 9.33 45.33 9.6 50.26C10 56.66 10 56.66 22.93 57.06C35.86 57.46 35.86 57.46 36.26 51.86C36.66 46.8 37.06 46.26 41.73 44.66C44.66 43.73 48.4 41.6 50.13 39.86C51.86 38.26 53.6 35.6 54.13 34.13C54.53 32.53 56.26 30.26 57.73 29.06C60.53 26.93 60.53 26.8 58.13 24.13C56.13 22 55.2 21.73 53.73 22.93C52.53 23.86 52.13 25.73 52.66 28.26C53.33 30.8 52.8 33.2 51.33 35.46C50.13 37.33 47.33 40 44.93 41.33C41.86 43.33 38.4 44 32 43.86C25.86 43.86 24.13 43.46 26 42.66C27.46 42 30.4 41.2 32.53 40.66C34.66 40.26 38.8 37.46 41.73 34.53C46.93 29.46 46.93 29.2 46.4 20.93C46.13 15.46 45.06 11.33 43.33 8.93C41.86 6.93 38.26 4.13 35.2 2.66C31.6 0.93 27.2 6.1e-5 21.73 6.1e-5C14.93 6.1e-5 12.93 0.66 8.26 4ZM30 2.8C33.2 3.6 37.33 6 39.46 8.13C42.53 11.46 43.33 13.46 43.73 20.66C44.26 28.8 44.13 29.46 40.26 33.33C38 35.46 35.59 37.33 34.93 37.33C34.13 37.33 35.33 35.46 37.46 33.2C39.86 30.53 41.33 27.6 41.33 25.2C41.33 23.06 40.8 21.33 40 21.33C39.33 21.33 38.66 23.06 38.66 25.2C38.66 27.46 37.33 30.26 35.2 32.53C33.2 34.4 31.06 36 30.26 36C29.6 36 29.73 36.93 30.66 38C32.13 39.73 31.2 40 24.13 40C17.46 40 14.93 39.33 10.53 36.4C7.6 34.53 4.26 31.2 3.2 29.2C2.13 27.06 1.33 22.8 1.33 19.6C1.33 16 2.13 13.06 3.33 12C4.93 10.66 5.06 11.2 4.53 15.6C3.86 20.66 3.86 20.66 6.39 15.33C8 12 10.66 9.06 13.46 7.73C16 6.53 19.46 5.2 21.33 4.93C23.86 4.53 23.6 4.26 20 4.13C16.4 4 15.86 3.6 17.33 2.66C18.4 2 20.4 1.33 21.73 1.33C23.06 1.33 26.8 2 30 2.8ZM13.33 4.66C13.33 5.06 13.06 5.33 12.66 5.33C12.26 5.33 12 5.06 12 4.66C12 4.26 12.26 4 12.66 4C13.06 4 13.33 4.26 13.33 4.66ZM21.33 54C21.33 54.4 21.06 54.66 20.66 54.66C20.26 54.66 20 54.4 20 54C20 53.6 20.26 53.33 20.66 53.33C21.06 53.33 21.33 53.6 21.33 54Z" fill="#000000" fill-opacity="1.000000" fill-rule="nonzero"/>
	<path id="path" d="M1.46 10.53C0.66 12 0 16.13 0 19.86C0 23.46 0.53 28 1.33 29.86C2 31.73 4.93 34.8 8 36.8C10.93 38.8 13.33 41.2 13.33 42.13C13.33 43.2 12.4 44 11.2 44C9.6 44 9.33 45.33 9.6 50.26C10 56.66 10 56.66 22.93 57.06C35.86 57.46 35.86 57.46 36.26 51.86C36.66 46.8 37.06 46.26 41.73 44.66C44.66 43.73 48.4 41.6 50.13 39.86C51.86 38.26 53.6 35.6 54.13 34.13C54.53 32.53 56.26 30.26 57.73 29.06C60.53 26.93 60.53 26.8 58.13 24.13C56.13 22 55.2 21.73 53.73 22.93C52.53 23.86 52.13 25.73 52.66 28.26C53.33 30.8 52.8 33.2 51.33 35.46C50.13 37.33 47.33 40 44.93 41.33C41.86 43.33 38.4 44 32 43.86C25.86 43.86 24.13 43.46 26 42.66C27.46 42 30.4 41.2 32.53 40.66C34.66 40.26 38.8 37.46 41.73 34.53C46.93 29.46 46.93 29.2 46.4 20.93C46.13 15.46 45.06 11.33 43.33 8.93C41.86 6.93 38.26 4.13 35.2 2.66C31.6 0.93 27.2 6.1e-5 21.73 6.1e-5C14.93 6.1e-5 12.93 0.66 8.26 4C5.2 6.13 2.13 9.06 1.46 10.53ZM39.46 8.13C42.53 11.46 43.33 13.46 43.73 20.66C44.26 28.8 44.13 29.46 40.26 33.33C38 35.46 35.59 37.33 34.93 37.33C34.13 37.33 35.33 35.46 37.46 33.2C39.86 30.53 41.33 27.6 41.33 25.2C41.33 23.06 40.8 21.33 40 21.33C39.33 21.33 38.66 23.06 38.66 25.2C38.66 27.46 37.33 30.26 35.2 32.53C33.2 34.4 31.06 36 30.26 36C29.6 36 29.73 36.93 30.66 38C32.13 39.73 31.2 40 24.13 40C17.46 40 14.93 39.33 10.53 36.4C7.6 34.53 4.26 31.2 3.2 29.2C2.13 27.06 1.33 22.8 1.33 19.6C1.33 16 2.13 13.06 3.33 12C4.93 10.66 5.06 11.2 4.53 15.6C3.86 20.66 3.86 20.66 6.39 15.33C8 12 10.66 9.06 13.46 7.73C16 6.53 19.46 5.2 21.33 4.93C23.86 4.53 23.6 4.26 20 4.13C16.4 4 15.86 3.6 17.33 2.66C18.4 2 20.4 1.33 21.73 1.33C23.06 1.33 26.8 2 30 2.8C33.2 3.6 37.33 6 39.46 8.13ZM12.66 5.33C12.26 5.33 12 5.06 12 4.66C12 4.26 12.26 4 12.66 4C13.06 4 13.33 4.26 13.33 4.66C13.33 5.06 13.06 5.33 12.66 5.33ZM20.66 54.66C20.26 54.66 20 54.4 20 54C20 53.6 20.26 53.33 20.66 53.33C21.06 53.33 21.33 53.6 21.33 54C21.33 54.4 21.06 54.66 20.66 54.66Z" stroke="#000000" stroke-opacity="1.000000" stroke-width="0.133333"/>
	<path id="path" d="M16.93 18.4C15.6 19.73 14.66 21.6 14.66 22.53C14.66 23.33 16.13 24.8 18 25.6C20.53 26.66 22.13 26.66 24.66 25.6C26.53 24.66 28 22.93 28 21.46C28 20 26.8 18.13 25.46 17.33C24 16.66 22 16 20.93 16C19.86 16 18.13 17.06 16.93 18.4ZM22.66 18.66C22.66 19.33 23.6 20 24.66 20C25.73 20 26.66 20.8 26.66 21.86C26.66 22.8 25.33 24 23.6 24.26C22 24.53 19.86 24.66 18.93 24.26C18 24 17.33 23.06 17.33 22.13C17.33 21.2 18 19.86 18.93 18.93C19.86 18 21.06 17.33 21.6 17.33C22.13 17.33 22.66 17.86 22.66 18.66Z" fill="#000000" fill-opacity="1.000000" fill-rule="nonzero"/>
	<path id="path" d="M14.66 22.53C14.66 23.33 16.13 24.8 18 25.6C20.53 26.66 22.13 26.66 24.66 25.6C26.53 24.66 28 22.93 28 21.46C28 20 26.8 18.13 25.46 17.33C24 16.66 22 16 20.93 16C19.86 16 18.13 17.06 16.93 18.4C15.6 19.73 14.66 21.6 14.66 22.53ZM24.66 20C25.73 20 26.66 20.8 26.66 21.86C26.66 22.8 25.33 24 23.6 24.26C22 24.53 19.86 24.66 18.93 24.26C18 24 17.33 23.06 17.33 22.13C17.33 21.2 18 19.86 18.93 18.93C19.86 18 21.06 17.33 21.6 17.33C22.13 17.33 22.66 17.86 22.66 18.66C22.66 19.33 23.6 20 24.66 20Z" stroke="#000000" stroke-opacity="1.000000" stroke-width="0.133333"/>
</svg>
