<svg width="62.000000" height="63.000000" viewBox="0 0 62 63" fill="none" xmlns="http://www.w3.org/2000/svg" xmlns:xlink="http://www.w3.org/1999/xlink">
	<desc>
			Created with Pixso.
	</desc>
	<defs/>
	<path id="path" d="M46.09 0.79C45.69 1.33 35.96 2.13 24.49 2.66C10.63 3.33 3.03 4.26 1.69 5.46C-0.17 6.93 -0.31 9.06 0.36 17.33C0.89 22.79 1.96 33.2 2.76 40.39C4.09 52.53 4.49 53.6 7.83 55.33C10.09 56.53 11.96 56.66 13.29 55.86C14.36 55.2 16.23 54.66 17.56 54.66C18.76 54.66 19.83 55.6 19.83 56.66C19.83 57.73 18.76 58.79 17.56 58.79C16.23 58.93 14.36 58.93 13.56 58.79C12.49 58.66 12.23 59.46 12.63 60.66C13.03 61.73 13.69 62.66 13.96 62.66C14.23 62.66 15.83 62 17.69 61.2C19.43 60.39 21.29 58.53 21.56 57.2C22.09 55.06 23.56 54.66 31.56 54.66C39.69 54.66 40.89 54.93 41.56 57.33C42.09 59.33 43.43 60 46.89 60C49.56 60 52.09 59.33 52.49 58.53C53.03 57.73 53.03 56.79 52.63 56.39C52.09 55.86 51.03 56.26 50.23 57.06C49.29 58 47.56 58.66 46.23 58.66C44.89 58.66 43.83 57.73 43.83 56.66C43.83 55.6 44.23 54.66 44.89 54.53C45.43 54.39 47.69 54.26 49.83 54C52.09 53.73 55.56 52.93 57.69 52.13C61.56 50.53 61.56 50.53 60.49 41.6C60.09 36.66 59.56 26.13 59.43 18.26C59.16 5.59 58.89 3.59 56.63 1.86C55.16 0.79 52.36 -6.11e-5 50.49 -6.11e-5C48.49 -6.11e-5 46.49 0.39 46.09 0.79ZM55.56 4.26C56.49 5.19 57.16 7.86 57.16 10.26C57.16 12.66 57.03 14.66 56.89 14.66C56.63 14.66 44.36 15.06 29.56 15.6C2.49 16.4 2.49 16.4 2.49 11.6C2.49 8.79 2.63 6.66 2.89 6.53C3.03 6.39 13.03 5.59 25.16 4.66C37.29 3.73 48.63 2.93 50.63 2.79C52.49 2.79 54.63 3.33 55.56 4.26ZM57.69 28.26C58.23 35.06 58.76 42.79 58.89 45.33C59.16 50 59.16 50 49.16 50.93C43.69 51.33 31.96 52 23.29 52.26C7.29 52.66 7.29 52.66 5.69 43.33C4.76 38.13 3.96 30.53 3.96 26.26C3.83 18.66 3.83 18.66 18.89 18.53C27.03 18.4 37.69 17.86 42.49 17.33C47.29 16.79 52.49 16.26 53.96 16.26C56.63 15.99 56.89 16.93 57.69 28.26Z" fill="#000000" fill-opacity="1.000000" fill-rule="nonzero"/>
	<path id="path" d="M24.49 2.66C10.63 3.33 3.03 4.26 1.69 5.46C-0.17 6.93 -0.31 9.06 0.36 17.33C0.89 22.79 1.96 33.2 2.76 40.39C4.09 52.53 4.49 53.6 7.83 55.33C10.09 56.53 11.96 56.66 13.29 55.86C14.36 55.2 16.23 54.66 17.56 54.66C18.76 54.66 19.83 55.6 19.83 56.66C19.83 57.73 18.76 58.79 17.56 58.79C16.23 58.93 14.36 58.93 13.56 58.79C12.49 58.66 12.23 59.46 12.63 60.66C13.03 61.73 13.69 62.66 13.96 62.66C14.23 62.66 15.83 62 17.69 61.2C19.43 60.39 21.29 58.53 21.56 57.2C22.09 55.06 23.56 54.66 31.56 54.66C39.69 54.66 40.89 54.93 41.56 57.33C42.09 59.33 43.43 60 46.89 60C49.56 60 52.09 59.33 52.49 58.53C53.03 57.73 53.03 56.79 52.63 56.39C52.09 55.86 51.03 56.26 50.23 57.06C49.29 58 47.56 58.66 46.23 58.66C44.89 58.66 43.83 57.73 43.83 56.66C43.83 55.6 44.23 54.66 44.89 54.53C45.43 54.39 47.69 54.26 49.83 54C52.09 53.73 55.56 52.93 57.69 52.13C61.56 50.53 61.56 50.53 60.49 41.6C60.09 36.66 59.56 26.13 59.43 18.26C59.16 5.59 58.89 3.59 56.63 1.86C55.16 0.79 52.36 -6.11e-5 50.49 -6.11e-5C48.49 -6.11e-5 46.49 0.39 46.09 0.79C45.69 1.33 35.96 2.13 24.49 2.66ZM57.16 10.26C57.16 12.66 57.03 14.66 56.89 14.66C56.63 14.66 44.36 15.06 29.56 15.6C2.49 16.4 2.49 16.4 2.49 11.6C2.49 8.79 2.63 6.66 2.89 6.53C3.03 6.39 13.03 5.59 25.16 4.66C37.29 3.73 48.63 2.93 50.63 2.79C52.49 2.79 54.63 3.33 55.56 4.26C56.49 5.19 57.16 7.86 57.16 10.26ZM58.89 45.33C59.16 50 59.16 50 49.16 50.93C43.69 51.33 31.96 52 23.29 52.26C7.29 52.66 7.29 52.66 5.69 43.33C4.76 38.13 3.96 30.53 3.96 26.26C3.83 18.66 3.83 18.66 18.89 18.53C27.03 18.4 37.69 17.86 42.49 17.33C47.29 16.79 52.49 16.26 53.96 16.26C56.63 15.99 56.89 16.93 57.69 28.26C58.23 35.06 58.76 42.79 58.89 45.33Z" stroke="#000000" stroke-opacity="1.000000" stroke-width="0.133333"/>
	<path id="path" d="M44.76 7.73C40.36 8 37.43 8.66 37.83 9.46C38.36 10.13 41.56 10.66 45.16 10.66C48.76 10.66 52.09 10 52.49 9.2C53.03 8.4 53.16 7.73 53.03 7.6C52.76 7.46 49.03 7.46 44.76 7.73Z" fill="#000000" fill-opacity="1.000000" fill-rule="nonzero"/>
	<path id="path" d="M37.83 9.46C38.36 10.13 41.56 10.66 45.16 10.66C48.76 10.66 52.09 10 52.49 9.2C53.03 8.4 53.16 7.73 53.03 7.6C52.76 7.46 49.03 7.46 44.76 7.73C40.36 8 37.43 8.66 37.83 9.46Z" stroke="#000000" stroke-opacity="1.000000" stroke-width="0.133333"/>
	<path id="path" d="M7.43 8.93C6.89 9.33 6.49 10.26 6.49 10.93C6.49 11.46 7.69 12 9.16 12C10.63 12 11.83 11.06 11.83 10C11.83 8.93 11.03 8 10.09 8C9.03 8 7.83 8.4 7.43 8.93Z" fill="#000000" fill-opacity="1.000000" fill-rule="nonzero"/>
	<path id="path" d="M6.49 10.93C6.49 11.46 7.69 12 9.16 12C10.63 12 11.83 11.06 11.83 10C11.83 8.93 11.03 8 10.09 8C9.03 8 7.83 8.4 7.43 8.93C6.89 9.33 6.49 10.26 6.49 10.93Z" stroke="#000000" stroke-opacity="1.000000" stroke-width="0.133333"/>
	<path id="path" d="M15.83 10.66C15.83 12.53 17.03 12.8 22.89 12.66C26.63 12.4 30.63 12.26 31.56 12.13C32.36 12.13 33.16 11.06 33.16 10C33.16 8.53 31.29 8.13 24.49 8.26C17.29 8.4 15.83 8.79 15.83 10.66Z" fill="#000000" fill-opacity="1.000000" fill-rule="nonzero"/>
	<path id="path" d="M22.89 12.66C26.63 12.4 30.63 12.26 31.56 12.13C32.36 12.13 33.16 11.06 33.16 10C33.16 8.53 31.29 8.13 24.49 8.26C17.29 8.4 15.83 8.79 15.83 10.66C15.83 12.53 17.03 12.8 22.89 12.66Z" stroke="#000000" stroke-opacity="1.000000" stroke-width="0.133333"/>
	<path id="path" d="M29.16 22.26C21.43 22.53 13.96 22.93 12.36 23.33C9.96 23.86 9.56 25.06 9.29 35.73C9.16 44.53 9.43 47.86 10.76 48.26C11.69 48.66 21.16 48.53 31.83 48C42.49 47.6 51.96 46.8 52.89 46.26C53.83 45.6 54.49 42.13 54.49 36.93C54.49 32.4 53.69 27.2 52.76 25.33C51.56 22.93 49.96 22 47.16 21.86C44.89 21.86 36.89 22 29.16 22.26ZM51.03 32.66C51.56 38.26 51.56 43.33 51.16 44C50.76 44.8 48.23 45.33 45.69 45.33C41.43 45.33 41.16 45.06 41.03 40.93C40.89 38.66 40.63 34.66 40.36 32.13C40.09 29.6 39.56 27.33 39.29 27.06C39.03 26.8 37.83 26.93 36.63 27.46C34.76 28.13 34.76 28.66 36.09 30.4C37.03 31.46 37.83 34 37.96 35.86C38.09 37.73 38.63 40.4 39.16 41.86C39.83 43.46 39.56 44.66 38.36 45.46C37.29 46.13 30.89 46.66 24.23 46.66C11.83 46.66 11.83 46.66 11.83 36.8C11.83 31.2 12.49 26.4 13.29 26C14.09 25.46 21.43 24.66 29.56 24C37.83 23.46 45.83 22.93 47.29 22.8C49.83 22.66 50.23 23.6 51.03 32.66Z" fill="#000000" fill-opacity="1.000000" fill-rule="nonzero"/>
	<path id="path" d="M12.36 23.33C9.96 23.86 9.56 25.06 9.29 35.73C9.16 44.53 9.43 47.86 10.76 48.26C11.69 48.66 21.16 48.53 31.83 48C42.49 47.6 51.96 46.8 52.89 46.26C53.83 45.6 54.49 42.13 54.49 36.93C54.49 32.4 53.69 27.2 52.76 25.33C51.56 22.93 49.96 22 47.16 21.86C44.89 21.86 36.89 22 29.16 22.26C21.43 22.53 13.96 22.93 12.36 23.33ZM51.16 44C50.76 44.8 48.23 45.33 45.69 45.33C41.43 45.33 41.16 45.06 41.03 40.93C40.89 38.66 40.63 34.66 40.36 32.13C40.09 29.6 39.56 27.33 39.29 27.06C39.03 26.8 37.83 26.93 36.63 27.46C34.76 28.13 34.76 28.66 36.09 30.4C37.03 31.46 37.83 34 37.96 35.86C38.09 37.73 38.63 40.4 39.16 41.86C39.83 43.46 39.56 44.66 38.36 45.46C37.29 46.13 30.89 46.66 24.23 46.66C11.83 46.66 11.83 46.66 11.83 36.8C11.83 31.2 12.49 26.4 13.29 26C14.09 25.46 21.43 24.66 29.56 24C37.83 23.46 45.83 22.93 47.29 22.8C49.83 22.66 50.23 23.6 51.03 32.66C51.56 38.26 51.56 43.33 51.16 44Z" stroke="#000000" stroke-opacity="1.000000" stroke-width="0.133333"/>
	<path id="path" d="M24.36 28.13C23.96 28.93 24.09 29.99 24.89 30.53C25.69 31.06 26.76 33.99 27.29 37.06C27.83 40.13 28.63 42.66 29.29 42.66C29.96 42.66 30.49 41.6 30.49 40.26C30.49 39.06 29.83 35.73 29.16 33.06C28.36 30.26 27.16 27.73 26.49 27.33C25.83 26.93 24.89 27.33 24.36 28.13Z" fill="#000000" fill-opacity="1.000000" fill-rule="nonzero"/>
	<path id="path" d="M24.89 30.53C25.69 31.06 26.76 33.99 27.29 37.06C27.83 40.13 28.63 42.66 29.29 42.66C29.96 42.66 30.49 41.6 30.49 40.26C30.49 39.06 29.83 35.73 29.16 33.06C28.36 30.26 27.16 27.73 26.49 27.33C25.83 26.93 24.89 27.33 24.36 28.13C23.96 28.93 24.09 29.99 24.89 30.53Z" stroke="#000000" stroke-opacity="1.000000" stroke-width="0.133333"/>
	<path id="path" d="M46.36 26.93C46.36 27.2 46.23 29.6 45.96 32.4C45.69 35.06 46.36 38.4 47.29 39.73C48.76 41.6 48.89 40.8 48.76 34.4C48.63 30.13 48.09 26.66 47.56 26.66C46.89 26.66 46.49 26.8 46.36 26.93Z" fill="#000000" fill-opacity="1.000000" fill-rule="nonzero"/>
	<path id="path" d="M45.96 32.4C45.69 35.06 46.36 38.4 47.29 39.73C48.76 41.6 48.89 40.8 48.76 34.4C48.63 30.13 48.09 26.66 47.56 26.66C46.89 26.66 46.49 26.8 46.36 26.93C46.36 27.2 46.23 29.6 45.96 32.4Z" stroke="#000000" stroke-opacity="1.000000" stroke-width="0.133333"/>
	<path id="path" d="M15.83 29.33C15.83 30.13 16.49 31.99 17.29 33.46C18.23 35.46 18.23 36.66 17.29 37.86C16.23 39.2 16.36 40.13 17.83 41.33C19.69 42.93 19.96 42.4 19.56 35.99C19.29 31.86 18.49 28.66 17.56 28.26C16.63 27.99 15.83 28.53 15.83 29.33Z" fill="#000000" fill-opacity="1.000000" fill-rule="nonzero"/>
	<path id="path" d="M17.29 33.46C18.23 35.46 18.23 36.66 17.29 37.86C16.23 39.2 16.36 40.13 17.83 41.33C19.69 42.93 19.96 42.4 19.56 35.99C19.29 31.86 18.49 28.66 17.56 28.26C16.63 27.99 15.83 28.53 15.83 29.33C15.83 30.13 16.49 31.99 17.29 33.46Z" stroke="#000000" stroke-opacity="1.000000" stroke-width="0.133333"/>
</svg>
